General
Complete name                            : ../.././Samples/test_aspect_h263_ext.avi
Format                                   : AVI
Format/Info                              : Audio Video Interleave
File size                                : 717 KiB
Duration                                 : 4 s 500 ms
Overall bit rate                         : 1 306 kb/s
Writing application                      : MEncoder CVS-020415-18:02-2.95.4 
Writing library                          : MPlayer

Video
ID                                       : 0
Format                                   : H.263
Codec ID                                 : h263
Duration                                 : 3 s 960 ms
Bit rate                                 : 1 220 kb/s
Width                                    : 704 pixels
Height                                   : 576 pixels
Display aspect ratio                     : 1.222
Frame rate                               : 25.000 FPS
Standard                                 : PAL
Bit depth                                : 8 bits
Compression mode                         : Lossy
Bits/(Pixel*Frame)                       : 0.120
Stream size                              : 590 KiB (82%)

Audio
ID                                       : 1
Format                                   : MPEG Audio
Format version                           : Version 1
Format profile                           : Layer 2
Codec ID                                 : 50
Duration                                 : 4 s 500 ms
Source duration                          : 4 s 500 ms
Bit rate mode                            : Constant
Bit rate                                 : 224 kb/s
Channel(s)                               : 2 channels
Sampling rate                            : 44.1 kHz
Compression mode                         : Lossy
Stream size                              : 123 KiB (17%)
Alignment                                : Split accross interleaves
Interleave, duration                     : 440  ms (11.00 video frames)
Interleave, preload duration             : 500  ms


General
Complete name                            : ../.././Samples/test_aspect_h263_ext.avi
Format                                   : AVI
Format/Info                              : Audio Video Interleave
File size                                : 717 KiB
Duration                                 : 4 s 500 ms
Overall bit rate                         : 1 306 kb/s
Writing application                      : MEncoder CVS-020415-18:02-2.95.4 
Writing library                          : MPlayer

Video
ID                                       : 0
Format                                   : H.263
Codec ID                                 : h263
Duration                                 : 3 s 960 ms
Bit rate                                 : 1 220 kb/s
Width                                    : 704 pixels
Height                                   : 576 pixels
Display aspect ratio                     : 1.222
Frame rate                               : 25.000 FPS
Standard                                 : PAL
Bit depth                                : 8 bits
Compression mode                         : Lossy
Bits/(Pixel*Frame)                       : 0.120
Stream size                              : 590 KiB (82%)

Audio
ID                                       : 1
Format                                   : MPEG Audio
Format version                           : Version 1
Format profile                           : Layer 2
Codec ID                                 : 50
Duration                                 : 4 s 500 ms
Source duration                          : 4 s 500 ms
Bit rate mode                            : Constant
Bit rate                                 : 224 kb/s
Channel(s)                               : 2 channels
Sampling rate                            : 44.1 kHz
Compression mode                         : Lossy
Stream size                              : 123 KiB (17%)
Alignment                                : Split accross interleaves
Interleave, duration                     : 440  ms (11.00 video frames)
Interleave, preload duration             : 500  ms


